<?xml version="1.0" encoding="utf-8"?>
<!-- Generator: Adobe Illustrator 26.5.0, SVG Export Plug-In . SVG Version: 6.00 Build 0)  -->
<svg version="1.1" id="Layer_1" xmlns="http://www.w3.org/2000/svg" xmlns:xlink="http://www.w3.org/1999/xlink" x="0px" y="0px"
	 viewBox="0 0 841.89 268.76" style="enable-background:new 0 0 841.89 268.76;" xml:space="preserve">
<style type="text/css">
	.st0{fill:#37326D;}
	
		.st1{clip-path:url(#SVGID_00000073723897484857679550000002455325024810963884_);fill:url(#SVGID_00000107571689176402222560000013506092698977558178_);}
	
		.st2{clip-path:url(#SVGID_00000131351013320596299600000005401215747013775773_);fill:url(#SVGID_00000019668152534062456100000012429035474972959929_);}
	
		.st3{clip-path:url(#SVGID_00000071554058298801815970000002894084204174911884_);fill:url(#SVGID_00000016797077899423269900000000881866268840036480_);}
	
		.st4{clip-path:url(#SVGID_00000072999971819321895540000000868110092199099019_);fill:url(#SVGID_00000079479960211832140580000003441395785722516923_);}
	
		.st5{clip-path:url(#SVGID_00000175308583508460594180000010268266250662194615_);fill:url(#SVGID_00000114047742904769840060000014007491892251882133_);}
	
		.st6{clip-path:url(#SVGID_00000150806163865256751350000000559447595856527001_);fill:url(#SVGID_00000098196324176917766000000017835427691420148634_);}
	
		.st7{clip-path:url(#SVGID_00000153705107788873475240000009253927464958365574_);fill:url(#SVGID_00000034087164657539217320000000418930287284938398_);}
</style>
<path class="st0" d="M215.05,74.63c-1.05-1.55-2.29-2.89-3.69-3.99c-1.39-1.1-2.86-2-4.37-2.69c-1.51-0.68-3.04-1.19-4.56-1.5
	c-1.52-0.32-2.99-0.47-4.37-0.47h-16.11v41.74h16.11c1.39,0,2.86-0.16,4.37-0.47c1.52-0.32,3.06-0.82,4.56-1.5
	c1.51-0.68,2.98-1.59,4.37-2.69c1.4-1.1,2.64-2.45,3.7-3.99c1.05-1.54,1.9-3.35,2.53-5.36c0.63-2.01,0.95-4.32,0.95-6.84
	c0-2.55-0.32-4.87-0.95-6.88C216.96,77.98,216.1,76.17,215.05,74.63 M187.59,71.28h8.88c2.28,0,4.44,0.3,6.4,0.9
	c1.94,0.59,3.64,1.53,5.06,2.79c1.42,1.26,2.55,2.88,3.37,4.82c0.82,1.94,1.24,4.33,1.24,7.07s-0.42,5.13-1.24,7.07
	c-0.82,1.94-1.95,3.56-3.37,4.8c-1.42,1.25-3.12,2.18-5.06,2.77c-1.96,0.59-4.11,0.9-6.4,0.9h-8.88V71.28z"/>
<path class="st0" d="M228.85,65.98c-1.03,0-1.92,0.37-2.64,1.11c-0.71,0.73-1.07,1.61-1.07,2.6c0,1.06,0.35,1.94,1.05,2.62
	c0.69,0.68,1.59,1.03,2.66,1.03c1.05,0,1.93-0.35,2.62-1.03c0.68-0.68,1.03-1.56,1.03-2.62c0-0.99-0.36-1.86-1.05-2.59
	C230.74,66.35,229.87,65.98,228.85,65.98"/>
<rect x="226.2" y="79.87" class="st0" width="5.28" height="27.85"/>
<path class="st0" d="M262.33,83.61c-0.92-1.35-2.14-2.4-3.63-3.12c-1.84-0.89-3.74-1.34-5.63-1.34c-2.21,0-4.24,0.34-6.04,1.02
	c-1.81,0.68-3.39,1.66-4.68,2.91c-1.3,1.25-2.31,2.81-3.02,4.62c-0.71,1.8-1.06,3.86-1.06,6.11c0,2.03,0.36,3.94,1.07,5.67
	c0.71,1.74,1.73,3.26,3.03,4.54c1.3,1.27,2.87,2.28,4.67,2.98c1.79,0.71,3.82,1.07,6.03,1.07c1.89,0,3.74-0.42,5.52-1.25
	c1.47-0.69,2.72-1.71,3.74-3.05v2.35c0,1.39-0.15,2.74-0.46,4.02c-0.29,1.25-0.82,2.39-1.56,3.36c-0.73,0.97-1.74,1.74-2.99,2.3
	c-1.27,0.57-2.9,0.85-4.87,0.85c-2,0-3.79-0.38-5.33-1.14c-1.55-0.76-3.04-1.91-4.43-3.42l-0.3-0.32l-3.79,4.33l0.27,0.26
	c2.01,1.93,4.13,3.31,6.29,4.08c2.15,0.78,4.6,1.17,7.28,1.17c4.92,0,8.73-1.33,11.3-3.94c2.57-2.62,3.88-6.5,3.88-11.54V79.87
	h-5.31V83.61 M253.07,103.12c-1.26,0-2.46-0.24-3.56-0.71c-1.11-0.47-2.09-1.14-2.92-1.98c-0.83-0.84-1.49-1.84-1.96-2.96
	c-0.47-1.13-0.72-2.36-0.72-3.66c0-1.39,0.22-2.69,0.66-3.85c0.44-1.16,1.06-2.18,1.86-3.05c0.8-0.87,1.77-1.56,2.88-2.06
	c1.11-0.5,2.38-0.76,3.76-0.76c1.37,0,2.64,0.24,3.79,0.71c1.15,0.47,2.13,1.14,2.94,1.97c0.81,0.84,1.43,1.85,1.87,3.01
	c0.44,1.17,0.66,2.48,0.66,3.9c0,1.25-0.21,2.46-0.61,3.59c-0.4,1.12-1.01,2.12-1.79,2.98c-0.79,0.86-1.77,1.56-2.91,2.08
	C255.86,102.86,254.54,103.12,253.07,103.12z"/>
<path class="st0" d="M278.66,65.98c-1.03,0-1.92,0.37-2.64,1.11c-0.71,0.73-1.07,1.61-1.07,2.6c0,1.06,0.35,1.94,1.05,2.62
	c0.69,0.68,1.59,1.03,2.66,1.03c1.05,0,1.93-0.35,2.62-1.03c0.69-0.68,1.03-1.56,1.03-2.62c0-0.99-0.35-1.86-1.05-2.59
	C280.55,66.35,279.67,65.98,278.66,65.98"/>
<rect x="276.01" y="79.87" class="st0" width="5.27" height="27.85"/>
<path class="st0" d="M305.01,102.58c-0.57,0.29-1.19,0.52-1.86,0.66c-0.67,0.15-1.33,0.22-1.96,0.22c-0.92,0-1.63-0.15-2.11-0.44
	c-0.48-0.29-0.83-0.67-1.06-1.16c-0.24-0.51-0.38-1.12-0.41-1.83c-0.04-0.73-0.06-1.54-0.06-2.41V84.46h7.97v-4.59h-7.97v-7.69
	h-5.31v7.69h-5.89v4.59h5.89v14.46c0,1.42,0.09,2.72,0.27,3.87c0.18,1.19,0.57,2.21,1.15,3.03c0.59,0.83,1.4,1.48,2.43,1.93
	c1.01,0.44,2.36,0.67,4.02,0.67c0.87,0,1.79-0.09,2.75-0.25c0.97-0.17,1.85-0.43,2.64-0.77l0.25-0.11l-0.19-5.01L305.01,102.58"/>
<path class="st0" d="M334.21,104.99c-0.08-0.81-0.12-1.6-0.12-2.35V90.99c0-3.91-0.92-6.89-2.74-8.85c-1.83-1.98-4.85-2.98-9-2.98
	c-2,0-4,0.35-5.93,1.05c-1.94,0.7-3.66,1.78-5.1,3.22l-0.27,0.27l3.35,3.53l0.28-0.25c1.05-0.95,2.27-1.68,3.62-2.15
	c1.36-0.48,2.76-0.72,4.18-0.72c2.02,0,3.61,0.48,4.71,1.42c1.1,0.94,1.63,2.31,1.63,4.17v0.41h-1.38c-1.66,0-3.51,0.08-5.49,0.23
	c-2.01,0.16-3.91,0.55-5.65,1.19c-1.77,0.64-3.27,1.63-4.47,2.94c-1.22,1.34-1.84,3.19-1.84,5.52c0,1.38,0.29,2.61,0.85,3.66
	c0.56,1.04,1.33,1.92,2.28,2.64c0.94,0.71,2.06,1.25,3.32,1.61c1.25,0.36,2.59,0.54,3.98,0.54c2.15,0,4.02-0.47,5.57-1.41
	c1.23-0.74,2.27-1.65,3.11-2.71c0,0.3,0.01,0.62,0.02,0.96c0.02,0.78,0.11,1.5,0.26,2.14l0.07,0.3h5.1l-0.06-0.45
	C334.38,106.57,334.29,105.81,334.21,104.99 M321.2,103.8c-1.61,0-2.98-0.33-4.04-0.99c-1.02-0.63-1.52-1.7-1.52-3.27
	c0-1.73,0.76-2.94,2.32-3.68c1.64-0.78,3.89-1.17,6.72-1.17h4.14v1.33c-0.04,1.07-0.23,2.09-0.57,3.03
	c-0.33,0.93-0.82,1.75-1.44,2.44c-0.62,0.69-1.41,1.25-2.32,1.67C323.56,103.59,322.46,103.8,321.2,103.8z"/>
<rect x="342.33" y="63.22" class="st0" width="5.31" height="44.5"/>
<path class="st0" d="M44.11,151.03h9.42v11.9c-1.42,0.71-2.99,1.27-4.69,1.64c-4.48,0.99-8.49,0.72-11.84-0.65
	c-2.02-0.82-3.77-1.99-5.21-3.48c-1.45-1.49-2.59-3.26-3.39-5.28c-0.8-2.02-1.21-4.24-1.21-6.6c0-2.42,0.41-4.67,1.21-6.69
	c0.8-2.02,1.94-3.78,3.39-5.25c1.44-1.46,3.17-2.62,5.12-3.45c1.95-0.82,4.1-1.24,6.39-1.24c2.03,0,4.03,0.4,5.96,1.18
	c1.92,0.78,3.57,1.92,4.91,3.37l0.28,0.31l4.18-4.39l-0.27-0.27c-2-2-4.29-3.43-6.82-4.26c-2.51-0.83-5.17-1.25-7.9-1.25
	c-3.13,0-6.09,0.54-8.78,1.59c-2.69,1.06-5.08,2.55-7.12,4.45c-2.04,1.9-3.65,4.22-4.81,6.91c-1.15,2.68-1.73,5.71-1.73,8.99
	c0,3.22,0.55,6.21,1.65,8.89c1.1,2.68,2.66,5.02,4.63,6.94c1.97,1.92,4.34,3.43,7.03,4.49c2.69,1.06,5.7,1.59,8.93,1.59
	c2.69,0,5.38-0.32,8-0.94c2.63-0.63,5.16-1.61,7.54-2.92l0.2-0.11v-20.78H44.11V151.03"/>
<path class="st0" d="M92.26,144.96c-1.3-1.28-2.88-2.3-4.69-3.02c-1.81-0.72-3.81-1.08-5.96-1.08c-2.12,0-4.12,0.36-5.93,1.08
	c-1.81,0.72-3.38,1.73-4.69,3.02c-1.3,1.28-2.34,2.83-3.09,4.61c-0.75,1.78-1.13,3.78-1.13,5.95c0,2.15,0.38,4.14,1.13,5.92
	c0.75,1.78,1.79,3.33,3.09,4.61c1.31,1.28,2.88,2.3,4.69,3.01c1.81,0.72,3.8,1.08,5.93,1.08c2.15,0,4.15-0.36,5.96-1.08
	c1.81-0.72,3.38-1.73,4.69-3.01c1.3-1.28,2.34-2.83,3.09-4.61c0.75-1.78,1.13-3.77,1.13-5.92c0-2.17-0.38-4.17-1.13-5.95
	C94.61,147.79,93.57,146.24,92.26,144.96 M81.62,165.17c-1.41,0-2.69-0.25-3.8-0.74c-1.11-0.49-2.09-1.18-2.9-2.05
	c-0.81-0.87-1.43-1.89-1.86-3.05c-0.43-1.16-0.64-2.44-0.64-3.82c0-1.39,0.22-2.69,0.64-3.85c0.43-1.15,1.05-2.18,1.86-3.05
	c0.81-0.87,1.78-1.56,2.9-2.06c1.11-0.5,2.39-0.76,3.79-0.76c1.42,0,2.71,0.25,3.82,0.76c1.12,0.5,2.09,1.2,2.9,2.06
	c0.81,0.87,1.43,1.89,1.86,3.05c0.43,1.16,0.65,2.46,0.65,3.85c0,1.37-0.22,2.66-0.65,3.82c-0.42,1.16-1.05,2.18-1.86,3.05
	c-0.81,0.87-1.78,1.56-2.9,2.05C84.33,164.92,83.05,165.17,81.62,165.17z"/>
<polyline class="st0" points="113.55,162.21 105.41,141.82 105.31,141.57 99.22,141.57 110.48,169.18 110.58,169.42 116.1,169.42 
	127.11,141.57 121.39,141.57 113.55,162.21 "/>
<path class="st0" d="M154.04,144.73c-1.18-1.26-2.6-2.22-4.23-2.88c-1.62-0.66-3.42-0.99-5.34-0.99c-2.05,0-3.96,0.37-5.7,1.09
	c-1.74,0.72-3.26,1.73-4.53,3.01c-1.27,1.28-2.28,2.84-2.98,4.63c-0.71,1.78-1.06,3.78-1.06,5.93c0,1.98,0.33,3.89,0.98,5.67
	c0.65,1.79,1.6,3.35,2.81,4.66c1.21,1.31,2.7,2.36,4.44,3.13c1.74,0.77,3.71,1.17,5.86,1.17c2.61,0,4.92-0.43,6.88-1.27
	c1.97-0.85,3.81-2.37,5.46-4.52l0.23-0.31l-3.99-3.11l-0.24,0.3c-1.06,1.3-2.25,2.29-3.54,2.95c-1.28,0.66-2.9,0.99-4.81,0.99
	c-1.16,0-2.25-0.22-3.24-0.66c-0.99-0.44-1.87-1.05-2.61-1.79c-0.74-0.75-1.35-1.65-1.81-2.66c-0.41-0.89-0.66-1.82-0.76-2.78h21.83
	v-1.82c0-2.29-0.32-4.35-0.94-6.13C156.13,147.53,155.22,145.99,154.04,144.73 M152.03,152.67H135.9c0.33-2.01,1.19-3.65,2.54-4.89
	c1.45-1.32,3.42-1.99,5.85-1.99c2.44,0,4.35,0.67,5.66,1.98C151.18,149.01,151.88,150.65,152.03,152.67z"/>
<path class="st0" d="M177.74,140.86c-1.13,0-2.21,0.16-3.22,0.47c-0.99,0.31-1.9,0.71-2.69,1.2c-0.79,0.49-1.49,1.06-2.08,1.69
	c-0.28,0.3-0.54,0.62-0.75,0.94c-0.01-0.35-0.03-0.69-0.05-1.03c-0.04-0.73-0.06-1.45-0.06-2.16v-0.39h-5.06v0.39
	c0,0.88,0.04,1.89,0.11,2.97c0.07,1.05,0.11,2.21,0.11,3.45v21.04h5.31v-13.57c0-3.05,0.61-5.46,1.81-7.17
	c1.19-1.69,3.06-2.52,5.74-2.52c0.81,0,1.58,0.11,2.31,0.33l0.47,0.14l0.36-5.34l-0.27-0.1
	C179.17,140.97,178.49,140.86,177.74,140.86"/>
<path class="st0" d="M208.33,144.06c-0.88-1.01-2.02-1.81-3.37-2.37c-1.35-0.55-2.95-0.84-4.77-0.84c-1.13,0-2.21,0.16-3.22,0.47
	c-0.99,0.31-1.9,0.71-2.69,1.2c-0.79,0.49-1.49,1.06-2.08,1.69c-0.28,0.3-0.54,0.62-0.76,0.94c-0.01-0.35-0.03-0.69-0.04-1.03
	c-0.04-0.73-0.06-1.45-0.06-2.16v-0.39h-5.06v0.39c0,0.88,0.04,1.89,0.11,2.97c0.07,1.05,0.11,2.21,0.11,3.45v21.04h5.31v-13.57
	c0-1.51,0.16-2.9,0.48-4.13c0.32-1.22,0.8-2.28,1.44-3.16c0.63-0.86,1.46-1.55,2.46-2.03c1.01-0.49,2.23-0.74,3.63-0.74
	c2.02,0,3.45,0.59,4.37,1.8c0.93,1.23,1.41,2.97,1.41,5.19v16.64h5.3v-17.1c0-1.67-0.21-3.22-0.62-4.61
	C209.86,146.3,209.21,145.07,208.33,144.06"/>
<path class="st0" d="M257.89,144.06c-0.85-1.03-1.97-1.83-3.34-2.38c-1.35-0.54-3.04-0.82-5.03-0.82c-2.14,0-3.91,0.48-5.28,1.43
	c-1.18,0.83-2.27,1.95-3.24,3.34c-0.17-0.32-0.37-0.66-0.59-1.02c-0.38-0.63-0.92-1.23-1.61-1.78c-0.68-0.54-1.54-1.01-2.57-1.39
	c-1.03-0.39-2.32-0.58-3.82-0.58c-1.13,0-2.21,0.16-3.22,0.47c-0.99,0.31-1.9,0.71-2.69,1.2c-0.79,0.49-1.49,1.06-2.08,1.69
	c-0.28,0.3-0.54,0.62-0.75,0.94c-0.01-0.35-0.03-0.69-0.05-1.03c-0.04-0.73-0.06-1.45-0.06-2.16v-0.39h-5.06v0.39
	c0,0.88,0.04,1.89,0.11,2.97c0.07,1.05,0.11,2.21,0.11,3.45v21.04h5.31v-13.57c0-1.51,0.16-2.9,0.48-4.13
	c0.32-1.22,0.8-2.28,1.45-3.16c0.63-0.86,1.46-1.55,2.46-2.03c1.01-0.49,2.22-0.74,3.63-0.74c1.71,0,2.91,0.56,3.64,1.71
	c0.76,1.19,1.15,3.27,1.15,6.18v15.74h5.3V153.4c0-1.13,0.18-2.18,0.53-3.12c0.35-0.94,0.83-1.75,1.43-2.4
	c0.59-0.65,1.3-1.17,2.1-1.54c0.79-0.37,1.65-0.55,2.56-0.55c1.23,0,2.27,0.2,3.07,0.59c0.79,0.39,1.43,0.92,1.88,1.57
	c0.46,0.66,0.79,1.41,0.96,2.23c0.18,0.86,0.27,1.75,0.27,2.66v16.58h5.31V152.6c0-1.76-0.18-3.38-0.54-4.81
	C259.33,146.34,258.73,145.08,257.89,144.06"/>
<path class="st0" d="M290.32,144.73c-1.18-1.26-2.61-2.22-4.23-2.88c-1.63-0.66-3.42-0.99-5.34-0.99c-2.04,0-3.96,0.37-5.7,1.09
	c-1.73,0.72-3.26,1.73-4.53,3.01c-1.27,1.28-2.28,2.84-2.99,4.63c-0.71,1.78-1.06,3.78-1.06,5.93c0,1.98,0.33,3.89,0.99,5.67
	c0.65,1.79,1.6,3.35,2.81,4.66c1.21,1.31,2.7,2.36,4.44,3.13c1.74,0.77,3.71,1.17,5.86,1.17c2.61,0,4.92-0.43,6.88-1.27
	c1.98-0.85,3.81-2.37,5.46-4.52l0.23-0.31l-3.99-3.11l-0.24,0.3c-1.06,1.3-2.25,2.29-3.53,2.95c-1.28,0.66-2.9,0.99-4.81,0.99
	c-1.16,0-2.25-0.22-3.24-0.66c-0.99-0.44-1.87-1.05-2.61-1.79c-0.74-0.75-1.35-1.65-1.81-2.66c-0.41-0.89-0.66-1.82-0.75-2.78h21.82
	v-1.82c0-2.29-0.31-4.35-0.94-6.13C292.42,147.53,291.5,145.99,290.32,144.73 M288.31,152.67h-16.13c0.33-2.01,1.18-3.65,2.54-4.89
	c1.45-1.32,3.42-1.99,5.85-1.99c2.44,0,4.35,0.67,5.66,1.98C287.46,149.01,288.16,150.65,288.31,152.67z"/>
<path class="st0" d="M322.17,144.06c-0.88-1.01-2.02-1.81-3.37-2.37c-1.34-0.55-2.95-0.84-4.77-0.84c-1.13,0-2.21,0.16-3.22,0.47
	c-0.99,0.31-1.9,0.71-2.69,1.2c-0.79,0.49-1.49,1.06-2.08,1.69c-0.29,0.3-0.54,0.62-0.76,0.94c-0.01-0.35-0.02-0.69-0.04-1.03
	c-0.04-0.73-0.06-1.45-0.06-2.16v-0.39h-5.06v0.39c0,0.88,0.04,1.89,0.11,2.97c0.07,1.05,0.11,2.21,0.11,3.45v21.04h5.31v-13.57
	c0-1.51,0.16-2.9,0.48-4.13c0.32-1.22,0.8-2.28,1.44-3.16c0.63-0.86,1.46-1.55,2.46-2.03c1.01-0.49,2.23-0.74,3.63-0.74
	c2.02,0,3.45,0.59,4.37,1.8c0.94,1.23,1.41,2.97,1.41,5.19v16.64h5.31v-17.1c0-1.67-0.21-3.22-0.62-4.61
	C323.7,146.3,323.05,145.07,322.17,144.06"/>
<path class="st0" d="M346.9,164.28c-0.57,0.29-1.19,0.52-1.86,0.66c-0.67,0.15-1.33,0.22-1.96,0.22c-0.92,0-1.63-0.15-2.11-0.44
	c-0.48-0.29-0.83-0.67-1.06-1.16c-0.23-0.51-0.37-1.12-0.41-1.83c-0.04-0.73-0.06-1.54-0.06-2.41v-13.16h7.97v-4.59h-7.97v-7.69
	h-5.31v7.69h-5.89v4.59h5.89v14.46c0,1.42,0.09,2.72,0.27,3.87c0.18,1.19,0.57,2.21,1.15,3.03c0.59,0.83,1.4,1.48,2.42,1.93
	c1.01,0.44,2.36,0.67,4.02,0.67c0.87,0,1.79-0.08,2.75-0.25c0.97-0.17,1.86-0.43,2.65-0.77l0.25-0.1l-0.19-5.01L346.9,164.28"/>
<path class="st0" d="M124.56,191.62h-5.1l-18.39,41.74h6.38l4.19-10.04h19.98l4.18,10.04h6.5l-17.63-41.5L124.56,191.62
	 M129.46,218.01h-15.58l7.98-18.86L129.46,218.01z"/>
<path class="st0" d="M169.48,226.55v-21.04h-5.31v13.57c0,1.49-0.16,2.87-0.48,4.12c-0.32,1.23-0.81,2.3-1.46,3.18
	c-0.64,0.87-1.47,1.55-2.46,2.02c-1,0.47-2.21,0.71-3.61,0.71c-2.02,0-3.45-0.58-4.37-1.79c-0.93-1.21-1.41-2.96-1.41-5.17v-16.64
	h-5.31v17.1c0,1.64,0.21,3.19,0.62,4.59c0.42,1.42,1.08,2.65,1.96,3.65c0.88,1,2.01,1.8,3.35,2.37c1.34,0.57,2.94,0.85,4.79,0.85
	c1.13,0,2.2-0.15,3.2-0.45c0.99-0.3,1.9-0.7,2.7-1.2c0.8-0.5,1.5-1.08,2.09-1.73c0.28-0.3,0.53-0.62,0.75-0.94
	c0.01,0.34,0.02,0.68,0.03,1.01c0.03,0.73,0.05,1.46,0.05,2.2v0.39h5.09v-0.39c0-0.9-0.04-1.9-0.11-2.99
	C169.52,228.9,169.48,227.75,169.48,226.55"/>
<path class="st0" d="M192.77,228.22c-0.57,0.29-1.19,0.52-1.86,0.66c-0.67,0.15-1.33,0.22-1.96,0.22c-0.91,0-1.63-0.15-2.11-0.44
	c-0.48-0.29-0.83-0.67-1.06-1.16c-0.23-0.51-0.37-1.12-0.41-1.83c-0.04-0.73-0.06-1.54-0.06-2.41V210.1h7.97v-4.59h-7.97v-7.69H180
	v7.69h-5.89v4.59H180v14.46c0,1.42,0.09,2.72,0.27,3.88c0.18,1.19,0.57,2.21,1.15,3.03c0.59,0.83,1.4,1.48,2.43,1.93
	c1.01,0.44,2.36,0.67,4.02,0.67c0.87,0,1.79-0.08,2.75-0.25c0.97-0.17,1.85-0.43,2.64-0.77l0.25-0.11l-0.19-5.01L192.77,228.22"/>
<path class="st0" d="M221.1,208c-0.88-1.01-2.01-1.81-3.35-2.37c-1.34-0.55-2.93-0.84-4.76-0.84c-1.07,0-2.1,0.15-3.06,0.44
	c-0.95,0.29-1.82,0.65-2.59,1.09c-0.77,0.44-1.45,0.94-2.02,1.5c-0.26,0.26-0.5,0.52-0.72,0.77v-19.73h-5.31v44.5h5.31v-13.57
	c0-1.51,0.16-2.9,0.48-4.13c0.32-1.22,0.8-2.28,1.43-3.16c0.62-0.86,1.44-1.55,2.44-2.03c1.01-0.49,2.23-0.74,3.63-0.74
	c2,0,3.43,0.59,4.37,1.8c0.95,1.23,1.44,2.97,1.44,5.19v16.64h5.31v-17.1c0-1.66-0.21-3.21-0.63-4.61
	C222.64,210.24,221.98,209.01,221.1,208"/>
<path class="st0" d="M255.43,208.89c-1.31-1.28-2.88-2.3-4.69-3.01c-1.81-0.72-3.81-1.08-5.96-1.08c-2.12,0-4.12,0.36-5.93,1.08
	c-1.81,0.72-3.38,1.73-4.69,3.01c-1.3,1.28-2.34,2.83-3.09,4.61c-0.75,1.78-1.13,3.78-1.13,5.95c0,2.15,0.38,4.14,1.13,5.92
	c0.75,1.78,1.79,3.33,3.09,4.61c1.31,1.28,2.88,2.3,4.69,3.01c1.81,0.72,3.8,1.08,5.93,1.08c2.15,0,4.15-0.36,5.96-1.08
	c1.8-0.72,3.38-1.73,4.69-3.01c1.3-1.28,2.34-2.83,3.09-4.61c0.75-1.78,1.13-3.77,1.13-5.92c0-2.17-0.38-4.17-1.13-5.95
	C257.77,211.73,256.73,210.18,255.43,208.89 M244.78,229.11c-1.41,0-2.68-0.25-3.8-0.74c-1.11-0.49-2.08-1.18-2.9-2.05
	c-0.81-0.87-1.43-1.89-1.85-3.05c-0.43-1.16-0.64-2.44-0.64-3.82c0-1.39,0.22-2.69,0.64-3.85c0.42-1.16,1.05-2.18,1.85-3.05
	c0.81-0.87,1.78-1.56,2.9-2.06c1.11-0.5,2.39-0.76,3.79-0.76c1.43,0,2.72,0.26,3.82,0.76c1.12,0.5,2.09,1.2,2.9,2.07
	c0.81,0.87,1.43,1.89,1.86,3.05c0.43,1.16,0.65,2.46,0.65,3.85c0,1.37-0.22,2.66-0.65,3.82c-0.42,1.16-1.05,2.18-1.86,3.05
	c-0.81,0.87-1.78,1.56-2.9,2.05C247.5,228.86,246.21,229.11,244.78,229.11z"/>
<path class="st0" d="M280.02,204.8c-1.13,0-2.21,0.16-3.22,0.47c-1,0.31-1.9,0.71-2.69,1.2c-0.79,0.49-1.49,1.06-2.08,1.69
	c-0.28,0.3-0.54,0.62-0.75,0.94c-0.01-0.35-0.03-0.69-0.05-1.03c-0.04-0.73-0.06-1.45-0.06-2.16v-0.39h-5.06v0.39
	c0,0.88,0.04,1.89,0.11,2.97c0.07,1.05,0.11,2.21,0.11,3.45v21.04h5.31v-13.57c0-3.05,0.61-5.46,1.81-7.17
	c1.19-1.69,3.06-2.52,5.74-2.52c0.81,0,1.58,0.11,2.31,0.33l0.47,0.14l0.36-5.34l-0.28-0.1C281.44,204.91,280.76,204.8,280.02,204.8
	"/>
<rect x="287.51" y="205.51" class="st0" width="5.28" height="27.85"/>
<path class="st0" d="M290.16,191.62c-1.04,0-1.92,0.37-2.64,1.11c-0.71,0.73-1.07,1.61-1.07,2.6c0,1.06,0.35,1.94,1.05,2.62
	c0.69,0.68,1.59,1.03,2.66,1.03c1.05,0,1.93-0.35,2.62-1.03c0.68-0.68,1.03-1.56,1.03-2.62c0-0.99-0.36-1.86-1.05-2.59
	C292.05,191.99,291.18,191.62,290.16,191.62"/>
<path class="st0" d="M315.66,228.22c-0.57,0.29-1.19,0.52-1.86,0.66c-0.67,0.15-1.33,0.22-1.96,0.22c-0.91,0-1.63-0.15-2.11-0.44
	c-0.48-0.29-0.83-0.67-1.06-1.16c-0.24-0.51-0.38-1.12-0.41-1.83c-0.04-0.73-0.06-1.54-0.06-2.41V210.1h7.97v-4.59h-7.97v-7.69
	h-5.31v7.69H297v4.59h5.89v14.46c0,1.42,0.09,2.72,0.27,3.88c0.18,1.19,0.57,2.21,1.15,3.03c0.59,0.83,1.4,1.48,2.43,1.93
	c1,0.44,2.36,0.67,4.02,0.67c0.87,0,1.79-0.08,2.75-0.25c0.96-0.17,1.85-0.43,2.64-0.77l0.25-0.11l-0.19-5.01L315.66,228.22"/>
<path class="st0" d="M341.87,205.51l-7.83,20.68l-8.09-20.43l-0.1-0.25h-6.09l11.39,27.62l-1.81,4.94
	c-0.47,1.31-1.06,2.36-1.72,3.13c-0.62,0.71-1.61,1.08-2.93,1.08c-0.64,0-1.21-0.03-1.7-0.07c-0.46-0.05-0.91-0.16-1.35-0.33
	l-0.45-0.18l-0.7,4.67l0.25,0.13c0.66,0.33,1.38,0.54,2.15,0.63c0.74,0.08,1.44,0.13,2.09,0.13c1.41,0,2.62-0.19,3.6-0.57
	c0.99-0.38,1.85-0.94,2.57-1.65c0.71-0.71,1.31-1.56,1.81-2.53c0.48-0.95,0.95-2.02,1.41-3.18l13.3-33.81H341.87"/>
<path class="st0" d="M587.1,222.26c0,1.2-0.14,2.12-0.42,2.76c-0.28,0.65-0.65,1.15-1.12,1.52c-0.47,0.37-0.97,0.6-1.52,0.69
	c-0.55,0.1-1.06,0.15-1.55,0.15h-3.43c-1.51,0-2.77-0.21-3.77-0.62c-1-0.41-1.81-0.98-2.41-1.7c-0.61-0.72-1.04-1.57-1.3-2.54
	c-0.26-0.98-0.38-2.05-0.38-3.22v-12.33h-5.38v25.62c0,3.12-0.47,5.46-1.41,7.01c-0.94,1.55-2.72,2.32-5.32,2.32
	c-0.44,0-0.91-0.01-1.41-0.04c-0.5-0.03-0.97-0.07-1.41-0.15l-1.61-0.29l-0.58,5.42c0.51,0.07,1.21,0.16,2.08,0.26
	c0.88,0.1,1.85,0.15,2.93,0.15c1.95,0,3.69-0.36,5.21-1.08c1.53-0.72,2.79-1.72,3.81-3c1.01-1.28,1.78-2.78,2.3-4.5
	c0.52-1.72,0.79-3.56,0.79-5.51v-5.16c0.37,1.1,0.86,1.97,1.48,2.62c0.62,0.65,1.29,1.15,2.01,1.5c0.72,0.35,1.47,0.57,2.25,0.66
	c0.67,0.07,1.34,0.1,2.01,0.11v0.02h4.75c1.66,0,3.04-0.25,4.15-0.75c1.11-0.5,2.01-1.17,2.69-2.01s1.18-1.82,1.5-2.93
	c0.32-1.11,0.48-2.28,0.48-3.5v-39.74h-5.42V222.26"/>
<path class="st0" d="M398.77,191.69c-0.61,0.62-0.92,1.37-0.92,2.25c0,0.88,0.31,1.62,0.92,2.23c0.61,0.61,1.34,0.91,2.2,0.91
	c0.88,0,1.62-0.3,2.23-0.91c0.61-0.61,0.91-1.35,0.91-2.23c0-0.88-0.3-1.63-0.91-2.25c-0.61-0.62-1.35-0.93-2.23-0.93
	C400.11,190.75,399.38,191.06,398.77,191.69"/>
<path class="st0" d="M389.67,191.69c-0.62,0.62-0.93,1.37-0.93,2.25c0,0.88,0.31,1.62,0.93,2.23c0.62,0.61,1.35,0.91,2.18,0.91
	c0.88,0,1.63-0.3,2.25-0.91c0.62-0.61,0.93-1.35,0.93-2.23c0-0.88-0.31-1.63-0.93-2.25c-0.62-0.62-1.37-0.93-2.25-0.93
	C391.02,190.75,390.3,191.06,389.67,191.69"/>
<path class="st0" d="M463.85,240.78c-0.85,0-1.59,0.3-2.19,0.91c-0.61,0.61-0.92,1.35-0.92,2.23c0,0.86,0.31,1.59,0.92,2.2
	c0.61,0.61,1.34,0.91,2.19,0.91c0.88,0,1.63-0.3,2.25-0.91c0.62-0.61,0.93-1.34,0.93-2.2c0-0.88-0.31-1.62-0.93-2.23
	C465.48,241.08,464.73,240.78,463.85,240.78"/>
<path class="st0" d="M454.78,240.78c-0.85,0-1.59,0.3-2.19,0.91c-0.61,0.61-0.92,1.35-0.92,2.23c0,0.86,0.3,1.59,0.92,2.2
	c0.61,0.61,1.34,0.91,2.19,0.91c0.88,0,1.62-0.3,2.23-0.91c0.61-0.61,0.91-1.34,0.91-2.2c0-0.88-0.3-1.62-0.91-2.23
	C456.4,241.08,455.65,240.78,454.78,240.78"/>
<path class="st0" d="M535.38,191.69c-0.61,0.62-0.92,1.37-0.92,2.25c0,0.88,0.31,1.62,0.92,2.23c0.61,0.61,1.35,0.91,2.23,0.91
	c0.85,0,1.59-0.3,2.21-0.91c0.62-0.61,0.93-1.35,0.93-2.23c0-0.88-0.31-1.63-0.93-2.25c-0.62-0.62-1.36-0.93-2.21-0.93
	C536.73,190.75,535.99,191.06,535.38,191.69"/>
<path class="st0" d="M554.81,216.99c0-1.9-0.28-3.63-0.83-5.18c-0.55-1.55-1.35-2.88-2.4-4.01c-1.05-1.12-2.31-1.99-3.79-2.6
	c-1.48-0.61-3.13-0.92-4.96-0.92c-2.17,0-4.15,0.42-5.95,1.24c-1.79,0.83-3.34,1.9-4.65,3.2c-1.31,1.31-2.3,2.83-3,4.56
	c-0.7,1.73-1.04,3.49-1.04,5.27c0,1.93,0.32,3.65,0.97,5.16c0.65,1.51,1.47,2.73,2.47,3.66h-12c-1.78,0-3.19-0.27-4.21-0.82
	c-1.02-0.55-1.8-1.2-2.34-1.96c-0.54-0.76-0.88-1.55-1.03-2.38c-0.14-0.83-0.22-1.52-0.22-2.08c0-4.95-1.14-8.8-3.42-11.53
	c-2.28-2.73-5.49-4.1-9.61-4.1c-1.98,0-3.79,0.37-5.45,1.1c-1.66,0.73-3.08,1.75-4.26,3.06c-1.19,1.31-2.12,2.86-2.8,4.66
	c-0.68,1.81-1.02,3.76-1.02,5.86c0,1.68-0.17,3.06-0.51,4.12c-0.34,1.06-0.78,1.9-1.32,2.51c-0.54,0.61-1.15,1.02-1.85,1.24
	c-0.69,0.22-1.41,0.33-2.14,0.33h-3.87c-1.44,0-2.66-0.21-3.66-0.62c-1-0.41-1.81-0.98-2.43-1.7c-0.62-0.72-1.05-1.57-1.3-2.54
	c-0.25-0.98-0.37-2.05-0.37-3.22v-12.33h-5.42v15.22c0,1.59-0.28,2.85-0.84,3.79c-0.56,0.94-1.67,1.41-3.33,1.41h-49.16v-10.03
	c0-1.93-0.3-3.7-0.9-5.31c-0.6-1.61-1.43-2.99-2.49-4.14c-1.06-1.15-2.37-2.04-3.92-2.67c-1.55-0.63-3.28-0.95-5.18-0.95
	c-2,0-3.86,0.42-5.56,1.24c-1.71,0.83-3.19,1.95-4.43,3.35c-1.25,1.4-2.22,3.05-2.91,4.94c-0.7,1.89-1.04,3.89-1.04,5.98
	c0,1.59,0.26,3.17,0.79,4.74c0.52,1.57,1.36,2.97,2.52,4.19c1.16,1.22,2.68,2.22,4.57,3c1.89,0.78,4.18,1.17,6.86,1.17h61.27
	c0.88,0,1.73-0.07,2.56-0.2c0.83-0.13,1.6-0.38,2.3-0.75c0.71-0.37,1.35-0.9,1.94-1.61c0.59-0.71,1.12-1.63,1.61-2.78
	c0.56,1.93,1.57,3.3,3.04,4.12c1.46,0.82,3.21,1.23,5.23,1.23h4.6c1.44,0,2.86-0.48,4.25-1.43c1.39-0.95,2.4-2.39,3.04-4.32
	c1.27,2.1,2.79,3.64,4.58,4.61c1.78,0.98,3.98,1.46,6.59,1.46c1.07,0,2.12-0.07,3.15-0.2c1.02-0.13,2.03-0.43,3-0.88
	c0.98-0.45,1.93-1.11,2.87-1.98c0.94-0.87,1.86-2.02,2.76-3.46c0.32,1.22,0.8,2.23,1.45,3.02c0.65,0.79,1.38,1.43,2.21,1.9
	c0.83,0.48,1.72,0.8,2.67,0.99c0.95,0.18,1.92,0.28,2.89,0.28h35.39V216.99 M403.71,227.38h-6.51c-1.22,0-2.37-0.16-3.46-0.49
	c-1.09-0.33-2.06-0.84-2.93-1.54c-0.87-0.7-1.55-1.61-2.05-2.74c-0.5-1.13-0.75-2.51-0.75-4.12c0-1.37,0.23-2.59,0.68-3.68
	c0.45-1.09,1.06-2.03,1.83-2.84c0.77-0.81,1.63-1.41,2.58-1.81c0.95-0.4,1.95-0.61,3-0.61c2.46,0,4.35,0.87,5.65,2.62
	c1.31,1.74,1.96,4.2,1.96,7.37V227.38z M506.39,222.57c-0.32,1.01-0.81,1.9-1.46,2.67c-0.66,0.77-1.51,1.38-2.54,1.85
	c-1.04,0.46-2.25,0.7-3.64,0.7c-1.44,0-2.66-0.23-3.68-0.7c-1.01-0.46-1.86-1.08-2.54-1.85c-0.68-0.77-1.19-1.66-1.5-2.67
	c-0.32-1.01-0.48-2.13-0.48-3.35c0-1.49,0.21-2.82,0.64-4.01c0.43-1.18,1.02-2.19,1.77-3.02c0.76-0.83,1.63-1.48,2.64-1.94
	c1-0.46,2.05-0.7,3.14-0.7c1.03,0,2.03,0.23,3.02,0.7c0.99,0.46,1.86,1.11,2.62,1.94c0.76,0.83,1.36,1.84,1.81,3.02
	c0.45,1.18,0.68,2.52,0.68,4.01C506.87,220.44,506.71,221.56,506.39,222.57z M549.36,227.38h-7.72c-1.61-0.22-2.95-0.66-4.03-1.32
	c-1.05-0.56-1.99-1.44-2.82-2.63c-0.83-1.2-1.24-2.84-1.24-4.94c0-1.37,0.24-2.59,0.71-3.68c0.48-1.09,1.1-2.03,1.89-2.84
	c0.78-0.81,1.68-1.41,2.71-1.81c1.03-0.4,2.09-0.61,3.18-0.61c1.29,0,2.4,0.22,3.33,0.64c0.92,0.43,1.68,0.98,2.27,1.67
	c0.59,0.68,1.02,1.45,1.3,2.3c0.28,0.85,0.42,1.68,0.42,2.49V227.38z"/>
<path class="st0" d="M544.47,191.69c-0.62,0.62-0.94,1.37-0.94,2.25c0,0.88,0.31,1.62,0.94,2.23c0.62,0.61,1.36,0.91,2.21,0.91
	c0.88,0,1.62-0.3,2.23-0.91c0.61-0.61,0.92-1.35,0.92-2.23c0-0.88-0.31-1.63-0.92-2.25c-0.61-0.62-1.35-0.93-2.23-0.93
	C545.83,190.75,545.09,191.06,544.47,191.69"/>
<rect x="600.3" y="183.98" class="st0" width="5.27" height="48.93"/>
<path class="st0" d="M385.98,103.54c1.16,1.22,2.68,2.22,4.57,3c1.89,0.78,4.18,1.17,6.86,1.17h112.38c0.88,0,1.73-0.07,2.56-0.2
	c0.83-0.13,1.6-0.38,2.31-0.75c0.71-0.37,1.35-0.9,1.94-1.61c0.59-0.71,1.12-1.63,1.61-2.78c0.56,1.93,1.57,3.3,3.03,4.12
	c1.46,0.82,3.21,1.23,5.23,1.23h15.2c0.88,0,1.73-0.07,2.56-0.2c0.83-0.13,1.6-0.38,2.31-0.75c0.71-0.37,1.35-0.9,1.94-1.61
	c0.59-0.71,1.12-1.63,1.61-2.78c0.56,1.93,1.57,3.3,3.04,4.12c1.46,0.82,3.21,1.23,5.23,1.23h46.87c0,0,0.47-10.94,0-15.49
	c-0.79-7.63-5.43-15.17-17.93-15.17c-7.25,0-12.32,2.32-12.32,2.32l0.74,4.81c0,0,3.24-1.62,9.09-2.08
	c2.84-0.22,8.58-0.21,11.36,2.44c5.08,4.83,3.42,17.65,3.42,17.65h-6.7v-5.16c0-1.27-0.2-2.43-0.59-3.49
	c-0.39-1.06-0.94-1.97-1.63-2.72c-0.7-0.75-1.55-1.34-2.57-1.76c-1.02-0.42-2.15-0.63-3.4-0.63c-1.31,0-2.53,0.27-3.65,0.82
	c-1.12,0.55-2.09,1.28-2.91,2.2c-0.82,0.92-1.45,2.01-1.91,3.25c-0.46,1.24-0.68,2.56-0.68,3.94c0,1.04,0.17,2.08,0.52,3.12
	l0.2,0.43h-17.66c-1.44,0-2.66-0.21-3.66-0.62c-1-0.41-1.81-0.98-2.43-1.7c-0.62-0.72-1.06-1.57-1.3-2.54
	c-0.25-0.98-0.37-2.05-0.37-3.22V81.77h-5.42v15.22c0,1.59-0.28,2.85-0.84,3.79c-0.56,0.94-1.67,1.41-3.33,1.41H526.7
	c-1.44,0-2.66-0.21-3.66-0.62c-1-0.41-1.81-0.98-2.44-1.7c-0.62-0.72-1.06-1.57-1.3-2.54c-0.24-0.98-0.36-2.05-0.36-3.22V81.77
	h-5.42v15.22c0,1.59-0.28,2.85-0.84,3.79c-0.56,0.94-1.67,1.41-3.33,1.41H409.09V92.16c0-1.93-0.3-3.7-0.9-5.31
	c-0.6-1.61-1.43-2.99-2.49-4.14c-1.06-1.14-2.37-2.04-3.92-2.67c-1.55-0.63-3.28-0.95-5.18-0.95c-2,0-3.86,0.41-5.56,1.24
	c-1.71,0.83-3.19,1.95-4.43,3.35c-1.25,1.4-2.22,3.05-2.91,4.94c-0.7,1.89-1.04,3.89-1.04,5.98c0,1.59,0.26,3.17,0.79,4.74
	C383.98,100.93,384.82,102.32,385.98,103.54 M583.15,101.94c-0.54-0.16-1.02-0.42-1.45-0.76c-0.43-0.35-0.77-0.8-1.02-1.37
	c-0.25-0.57-0.37-1.25-0.37-2.05c0-0.68,0.11-1.29,0.34-1.83c0.22-0.54,0.53-1.01,0.91-1.41c0.38-0.4,0.81-0.7,1.28-0.9
	c0.47-0.2,0.97-0.3,1.49-0.3c1.22,0,2.16,0.43,2.81,1.3c0.65,0.87,0.97,2.09,0.97,3.67v3.89h-3.23
	C584.26,102.19,583.68,102.11,583.15,101.94z M388.68,89.62c0.45-1.09,1.06-2.03,1.83-2.84c0.77-0.81,1.63-1.41,2.58-1.81
	c0.95-0.4,1.95-0.6,3-0.6c2.46,0,4.35,0.87,5.65,2.62c1.31,1.74,1.96,4.2,1.96,7.37v7.83h-6.51c-1.22,0-2.37-0.16-3.46-0.49
	c-1.09-0.33-2.06-0.84-2.93-1.54c-0.87-0.7-1.55-1.61-2.05-2.74c-0.5-1.13-0.75-2.51-0.75-4.12
	C388.01,91.93,388.24,90.71,388.68,89.62z"/>
<path class="st0" d="M400.96,71.89c0.88,0,1.62-0.3,2.23-0.91c0.61-0.61,0.91-1.35,0.91-2.23c0-0.88-0.3-1.63-0.91-2.25
	c-0.61-0.62-1.35-0.93-2.23-0.93c-0.86,0-1.59,0.31-2.2,0.93c-0.61,0.62-0.92,1.37-0.92,2.25c0,0.88,0.31,1.62,0.92,2.23
	C399.38,71.58,400.11,71.89,400.96,71.89"/>
<path class="st0" d="M391.85,71.89c0.88,0,1.63-0.3,2.25-0.91c0.62-0.61,0.93-1.35,0.93-2.23c0-0.88-0.31-1.63-0.93-2.25
	c-0.62-0.62-1.37-0.93-2.25-0.93c-0.83,0-1.56,0.31-2.18,0.93c-0.62,0.62-0.93,1.37-0.93,2.25c0,0.88,0.31,1.62,0.93,2.23
	C390.3,71.58,391.02,71.89,391.85,71.89"/>
<path class="st0" d="M523.84,69.47h-1.72c-1.17,0-2.2-0.16-3.09-0.48c-0.89-0.32-1.62-0.73-2.2-1.23c-0.57-0.5-0.99-1.07-1.26-1.7
	c-0.27-0.63-0.4-1.28-0.4-1.94c0-1.29,0.46-2.22,1.39-2.8c0.93-0.57,2.11-0.86,3.55-0.86c0.34,0,0.76,0.03,1.26,0.07
	c0.5,0.05,0.88,0.1,1.15,0.15l0.44-3.4c-0.51-0.12-1.06-0.21-1.63-0.26c-0.57-0.05-1.13-0.07-1.66-0.07c-1.27,0-2.39,0.18-3.37,0.55
	c-0.98,0.36-1.79,0.86-2.45,1.48c-0.66,0.62-1.16,1.33-1.5,2.12c-0.34,0.79-0.51,1.63-0.51,2.51c0,0.81,0.2,1.74,0.6,2.82
	c0.4,1.07,1.13,2.08,2.18,3.04h-5.05v3.44h14.27V69.47"/>
<path class="st0" d="M535.48,121.84c0.88,0,1.62-0.3,2.23-0.91c0.61-0.61,0.92-1.34,0.92-2.19c0-0.88-0.3-1.62-0.92-2.23
	c-0.61-0.61-1.35-0.92-2.23-0.92c-0.86,0-1.59,0.3-2.19,0.92c-0.61,0.61-0.92,1.35-0.92,2.23c0,0.85,0.31,1.59,0.92,2.19
	C533.89,121.54,534.62,121.84,535.48,121.84"/>
<path class="st0" d="M546.8,120.93c0.62-0.61,0.93-1.34,0.93-2.19c0-0.88-0.31-1.62-0.93-2.23c-0.62-0.61-1.37-0.92-2.25-0.92
	c-0.85,0-1.59,0.3-2.19,0.92c-0.61,0.61-0.92,1.35-0.92,2.23c0,0.85,0.31,1.59,0.92,2.19c0.61,0.61,1.34,0.91,2.19,0.91
	C545.43,121.84,546.18,121.54,546.8,120.93"/>
<path class="st0" d="M398.77,128.21c-0.61,0.62-0.92,1.37-0.92,2.25c0,0.88,0.31,1.62,0.92,2.23c0.61,0.61,1.34,0.91,2.2,0.91
	c0.88,0,1.62-0.3,2.23-0.91c0.61-0.61,0.91-1.35,0.91-2.23c0-0.88-0.3-1.63-0.91-2.25c-0.61-0.62-1.35-0.93-2.23-0.93
	C400.11,127.28,399.38,127.59,398.77,128.21"/>
<path class="st0" d="M385.98,165.26c1.16,1.22,2.68,2.22,4.57,3c1.89,0.78,4.18,1.17,6.86,1.17h22.71c1.95,0,3.59-0.44,4.9-1.34
	c1.32-0.89,2.39-2.36,3.22-4.41c0.83,1.32,1.72,2.37,2.67,3.15c0.95,0.78,1.94,1.38,2.97,1.79c1.02,0.41,2.05,0.68,3.08,0.8
	c1.02,0.12,1.99,0.18,2.89,0.18c2.39,0,4.41-0.38,6.04-1.13c1.63-0.76,2.95-1.78,3.97-3.06c1.01-1.28,1.75-2.73,2.21-4.35
	c0.46-1.62,0.7-3.28,0.7-4.96c0-2.25-0.26-4.29-0.79-6.13c-0.52-1.84-1.32-3.41-2.4-4.72c-1.08-1.31-2.42-2.34-4.04-3.09
	c-1.62-0.76-3.52-1.13-5.69-1.13c-1.95,0-3.76,0.37-5.43,1.1c-1.67,0.73-3.11,1.75-4.3,3.04c-1.2,1.29-2.14,2.84-2.84,4.63
	c-0.69,1.79-1.04,3.76-1.04,5.91c0,5.46-1.95,8.2-5.86,8.2h-11.3v-10.03c0-1.93-0.3-3.7-0.9-5.31c-0.6-1.61-1.43-2.99-2.49-4.14
	c-1.06-1.15-2.37-2.04-3.92-2.67c-1.55-0.63-3.28-0.95-5.18-0.95c-2,0-3.86,0.41-5.56,1.24c-1.71,0.83-3.19,1.94-4.43,3.35
	c-1.25,1.4-2.22,3.05-2.91,4.94c-0.7,1.89-1.04,3.89-1.04,5.99c0,1.59,0.26,3.16,0.79,4.74
	C383.98,162.65,384.82,164.04,385.98,165.26 M432.16,151.74c0.44-1.19,1.04-2.19,1.79-3.02c0.76-0.83,1.63-1.48,2.63-1.94
	c1-0.46,2.05-0.7,3.15-0.7c0.97,0,1.96,0.23,2.95,0.7c0.99,0.46,1.86,1.11,2.62,1.94c0.76,0.83,1.36,1.83,1.81,3.02
	c0.45,1.18,0.68,2.52,0.68,4.01c0,1.22-0.16,2.34-0.47,3.35c-0.32,1.01-0.8,1.9-1.46,2.67c-0.66,0.77-1.51,1.39-2.54,1.85
	c-1.04,0.46-2.23,0.69-3.57,0.69c-1.49,0-2.74-0.23-3.75-0.69c-1.01-0.46-1.85-1.08-2.51-1.85c-0.66-0.77-1.15-1.66-1.48-2.67
	c-0.33-1.01-0.5-2.13-0.5-3.35C431.51,154.26,431.73,152.93,432.16,151.74z M388.68,151.34c0.45-1.08,1.06-2.03,1.83-2.84
	c0.77-0.8,1.63-1.41,2.58-1.81c0.95-0.4,1.95-0.6,3-0.6c2.46,0,4.35,0.87,5.65,2.62c1.31,1.75,1.96,4.2,1.96,7.37v7.83h-6.51
	c-1.22,0-2.37-0.17-3.46-0.5c-1.09-0.33-2.06-0.84-2.93-1.54c-0.87-0.69-1.55-1.61-2.05-2.74c-0.5-1.14-0.75-2.51-0.75-4.12
	C388.01,153.65,388.24,152.43,388.68,151.34z"/>
<path class="st0" d="M389.67,128.21c-0.62,0.62-0.93,1.37-0.93,2.25c0,0.88,0.31,1.62,0.93,2.23c0.62,0.61,1.35,0.91,2.18,0.91
	c0.88,0,1.63-0.3,2.25-0.91c0.62-0.61,0.93-1.35,0.93-2.23c0-0.88-0.31-1.63-0.93-2.25c-0.62-0.62-1.37-0.93-2.25-0.93
	C391.02,127.28,390.3,127.59,389.67,128.21"/>
<path class="st0" d="M561.57,169.44c0.9,0,1.8-0.25,2.69-0.75c0.89-0.5,1.84-1.62,2.84-3.35c1.1,1.46,2.36,2.51,3.79,3.15
	c1.43,0.63,3.1,0.95,5.03,0.95h6.9c1.66,0,3.04-0.25,4.15-0.75c1.11-0.5,2.01-1.17,2.69-2.01c0.68-0.84,1.18-1.82,1.5-2.93
	c0.32-1.11,0.48-2.28,0.48-3.49v-39.74h-5.42v38.28c0,1.2-0.14,2.12-0.42,2.76c-0.28,0.65-0.65,1.15-1.12,1.52
	c-0.47,0.37-0.97,0.6-1.52,0.7c-0.55,0.1-1.07,0.15-1.56,0.15h-5.21c-1.37,0-2.5-0.3-3.39-0.9c-0.89-0.6-1.61-1.39-2.16-2.4
	c-0.55-1-0.97-2.18-1.26-3.55c-0.29-1.37-0.51-2.81-0.66-4.32c-0.07-1.34-0.32-2.73-0.73-4.17c-0.42-1.44-1.07-2.74-1.96-3.9
	c-0.89-1.16-2.04-2.11-3.46-2.86c-1.42-0.74-3.16-1.12-5.23-1.12c-0.88,0-1.79,0.07-2.74,0.2c-0.95,0.14-1.87,0.29-2.76,0.46
	c-0.89,0.17-1.74,0.37-2.54,0.61c-0.81,0.23-1.47,0.44-1.98,0.64l1.35,5.31c1.17-0.51,2.43-0.91,3.77-1.19
	c1.34-0.28,2.45-0.42,3.33-0.42c2.1,0,3.78,0.59,5.03,1.76c1.26,1.17,2.06,3.22,2.4,6.15c0.37,2.68,0.77,4.74,1.22,6.17
	c0.45,1.43,0.99,2.61,1.63,3.53h-29.49c-0.12-3.81-0.44-9.86-0.97-11.19c-0.68-1.71-1.61-3.09-2.8-4.14
	c-1.19-1.05-2.61-1.81-4.27-2.27c-1.66-0.46-23.43-0.7-25.38-0.7h-1.44l17.48-12.01l-2.97-3.95l-22.37,15.71v5.45h22.58
	c2.22,0,9.01,0.19,10.32,0.58c1.31,0.39,2.3,1.04,2.98,1.96c0.68,0.91,1.12,2.16,1.3,3.73c0.05,0.46,0.1,4.09,0.13,6.81h-47.06
	v-10.03c0-1.93-0.29-3.7-0.88-5.31c-0.58-1.61-1.41-2.99-2.47-4.14c-1.06-1.15-2.37-2.04-3.92-2.67c-1.55-0.63-3.3-0.95-5.25-0.95
	c-2,0-3.85,0.41-5.56,1.24c-1.71,0.83-3.18,1.94-4.41,3.35c-1.23,1.4-2.19,3.05-2.87,4.94c-0.69,1.89-1.03,3.89-1.03,5.99
	c0,1.59,0.26,3.16,0.79,4.74c0.52,1.57,1.37,2.97,2.52,4.19c1.16,1.22,2.68,2.22,4.58,3c1.89,0.78,4.18,1.17,6.86,1.17h6.37
	c-0.05,2.17-0.4,3.94-1.04,5.31c-0.65,1.37-1.49,2.44-2.55,3.22c-1.05,0.78-2.26,1.3-3.64,1.57c-1.38,0.27-2.84,0.4-4.37,0.4
	c-0.93,0-1.89-0.03-2.89-0.09c-1-0.06-2.03-0.14-3.07-0.24c-0.1,0.85-0.18,1.7-0.26,2.52c-0.07,0.83-0.14,1.72-0.22,2.67
	c1.05,0.17,2.07,0.28,3.08,0.33c1,0.05,1.97,0.07,2.92,0.07c2.51,0,4.81-0.29,6.9-0.86c2.08-0.57,3.9-1.5,5.43-2.76
	c1.54-1.27,2.73-2.9,3.59-4.9c0.85-2,1.32-4.42,1.39-7.25H561.57 M478.97,163.91h-6.59c-1.22,0-2.37-0.17-3.46-0.5
	c-1.09-0.33-2.06-0.84-2.93-1.54c-0.87-0.69-1.55-1.61-2.05-2.74c-0.5-1.14-0.75-2.51-0.75-4.12c0-1.37,0.23-2.59,0.68-3.68
	c0.45-1.08,1.05-2.03,1.79-2.84c0.74-0.8,1.62-1.41,2.62-1.81c1-0.4,2.03-0.6,3.08-0.6c2.34,0,4.19,0.87,5.56,2.62
	c1.36,1.75,2.05,4.2,2.05,7.37V163.91z"/>
<rect x="600.3" y="120.51" class="st0" width="5.27" height="48.93"/>
<g>
	<defs>
		<path id="SVGID_1_" d="M743.36,134.32c-1.25,0.88-1.99,2.31-1.99,3.84v38.62c0,2.59,2.1,4.69,4.68,4.69c2.6,0,4.7-2.1,4.7-4.69
			V140.6l41.04-28.73c1.38,0.73,2.96,1.14,4.64,1.14c5.59,0,10.09-4.51,10.09-10.08c0-5.57-4.51-10.08-10.09-10.08
			c-5.57,0-10.07,4.51-10.07,10.08c0,0.42,0.04,0.83,0.08,1.24L743.36,134.32"/>
	</defs>
	<clipPath id="SVGID_00000172407967416895566000000002508958761461429399_">
		<use xlink:href="#SVGID_1_"  style="overflow:visible;"/>
	</clipPath>
	
		<linearGradient id="SVGID_00000000942363340705209880000006923262898406178722_" gradientUnits="userSpaceOnUse" x1="-539.2662" y1="680.1013" x2="-537.1498" y2="680.1013" gradientTransform="matrix(0 86.506 86.506 0 -58058.8945 46699.0625)">
		<stop  offset="0" style="stop-color:#00ACB0"/>
		<stop  offset="0.239" style="stop-color:#0094B6"/>
		<stop  offset="0.4756" style="stop-color:#0080BA"/>
		<stop  offset="1" style="stop-color:#764896"/>
	</linearGradient>
	
		<rect x="741.37" y="92.85" style="clip-path:url(#SVGID_00000172407967416895566000000002508958761461429399_);fill:url(#SVGID_00000000942363340705209880000006923262898406178722_);" width="65.14" height="88.62"/>
</g>
<g>
	<defs>
		<path id="SVGID_00000173879337160687613890000014508315341387213225_" d="M714.24,124.05v38.45c-3.2,1.69-5.4,5.05-5.4,8.92
			c0,5.57,4.53,10.08,10.09,10.08c5.57,0,10.07-4.51,10.07-10.08c0-3.88-2.18-7.24-5.4-8.92v-36.01l60.63-42.46
			c1.27-0.88,2.01-2.31,2.01-3.84V51.53c0-2.59-2.1-4.69-4.7-4.69c-2.58,0-4.68,2.1-4.68,4.69v26.22l-60.63,42.46
			C714.98,121.09,714.24,122.52,714.24,124.05"/>
	</defs>
	<clipPath id="SVGID_00000182509492672497503970000002519771070171328677_">
		<use xlink:href="#SVGID_00000173879337160687613890000014508315341387213225_"  style="overflow:visible;"/>
	</clipPath>
	
		<linearGradient id="SVGID_00000003077727254710377820000013020341651021246104_" gradientUnits="userSpaceOnUse" x1="-539.2662" y1="679.9403" x2="-537.1498" y2="679.9403" gradientTransform="matrix(0 86.506 86.506 0 -58071.3633 46699.0625)">
		<stop  offset="0" style="stop-color:#00ACB0"/>
		<stop  offset="0.239" style="stop-color:#0094B6"/>
		<stop  offset="0.4756" style="stop-color:#0080BA"/>
		<stop  offset="1" style="stop-color:#764896"/>
	</linearGradient>
	
		<rect x="708.84" y="46.84" style="clip-path:url(#SVGID_00000182509492672497503970000002519771070171328677_);fill:url(#SVGID_00000003077727254710377820000013020341651021246104_);" width="77.42" height="134.67"/>
</g>
<g>
	<defs>
		<path id="SVGID_00000057122034288745887570000003193589419289951641_" d="M786.96,136.93l-15.49,10.85
			c-2.12,1.49-2.62,4.41-1.14,6.53c0.91,1.3,2.37,2,3.85,2c0.91,0,1.86-0.28,2.67-0.85l15.49-10.85c2.14-1.48,2.65-4.41,1.16-6.53
			C792.02,135.96,789.1,135.44,786.96,136.93"/>
	</defs>
	<clipPath id="SVGID_00000073679751176800296510000015020622577348796085_">
		<use xlink:href="#SVGID_00000057122034288745887570000003193589419289951641_"  style="overflow:visible;"/>
	</clipPath>
	
		<linearGradient id="SVGID_00000154398304522283846950000008289234568386989216_" gradientUnits="userSpaceOnUse" x1="-539.2662" y1="680.1499" x2="-537.1498" y2="680.1499" gradientTransform="matrix(0 86.506 86.506 0 -58055.1367 46699.0625)">
		<stop  offset="0" style="stop-color:#00ACB0"/>
		<stop  offset="0.239" style="stop-color:#0094B6"/>
		<stop  offset="0.4756" style="stop-color:#0080BA"/>
		<stop  offset="1" style="stop-color:#764896"/>
	</linearGradient>
	
		<rect x="768.84" y="135.44" style="clip-path:url(#SVGID_00000073679751176800296510000015020622577348796085_);fill:url(#SVGID_00000154398304522283846950000008289234568386989216_);" width="26.14" height="20.86"/>
</g>
<g>
	<defs>
		<path id="SVGID_00000136372178029552374190000001589917233649041342_" d="M816.52,164.19c-1.5-2.16-4.49-2.69-6.65-1.17
			l-73.18,51.24l-73.18-51.24c-2.16-1.52-5.14-0.99-6.65,1.17c-1.52,2.16-0.99,5.14,1.16,6.65l70.33,49.25l-20.59,14.43
			c-1.42-0.73-3.01-1.14-4.7-1.14c-5.67,0-10.26,4.59-10.26,10.26c0,5.67,4.59,10.26,10.26,10.26c5.67,0,10.26-4.59,10.26-10.26
			c0-0.44-0.04-0.86-0.11-1.29l23.47-16.43l23.45,16.43c-0.04,0.42-0.08,0.85-0.08,1.29c0,5.67,4.59,10.26,10.26,10.26
			c5.65,0,10.24-4.59,10.24-10.26c0-5.66-4.59-10.26-10.24-10.26c-1.69,0-3.28,0.42-4.7,1.14l-20.61-14.43l70.35-49.25
			C817.52,169.33,818.05,166.35,816.52,164.19"/>
	</defs>
	<clipPath id="SVGID_00000036959037314981847130000009890288405315468929_">
		<use xlink:href="#SVGID_00000136372178029552374190000001589917233649041342_"  style="overflow:visible;"/>
	</clipPath>
	
		<linearGradient id="SVGID_00000080181861704112453490000005922874955014903199_" gradientUnits="userSpaceOnUse" x1="-539.2662" y1="679.8741" x2="-537.1498" y2="679.8741" gradientTransform="matrix(0 86.506 86.506 0 -58076.4961 46699.0625)">
		<stop  offset="0" style="stop-color:#29B3B4"/>
		<stop  offset="0.2744" style="stop-color:#0F92B5"/>
		<stop  offset="0.4756" style="stop-color:#007EB5"/>
		<stop  offset="1" style="stop-color:#6F4B99"/>
	</linearGradient>
	
		<rect x="655.34" y="161.5" style="clip-path:url(#SVGID_00000036959037314981847130000009890288405315468929_);fill:url(#SVGID_00000080181861704112453490000005922874955014903199_);" width="162.71" height="92.39"/>
</g>
<g>
	<defs>
		<path id="SVGID_00000124135943290815003840000018246616680422588066_" d="M686.41,53.2l15.49-10.85c2.12-1.48,2.65-4.41,1.14-6.53
			c-0.91-1.3-2.35-2-3.83-2c-0.93,0-1.86,0.28-2.69,0.85l-15.49,10.85c-2.12,1.49-2.65,4.41-1.14,6.53
			C681.37,54.17,684.29,54.69,686.41,53.2"/>
	</defs>
	<clipPath id="SVGID_00000001658534444124773780000018418567313846608550_">
		<use xlink:href="#SVGID_00000124135943290815003840000018246616680422588066_"  style="overflow:visible;"/>
	</clipPath>
	
		<linearGradient id="SVGID_00000137122152633192473790000001808509414529120953_" gradientUnits="userSpaceOnUse" x1="-539.2662" y1="679.5983" x2="-537.1498" y2="679.5983" gradientTransform="matrix(0 86.506 86.506 0 -58097.8633 46699.0625)">
		<stop  offset="0" style="stop-color:#00ACB0"/>
		<stop  offset="0.239" style="stop-color:#0094B6"/>
		<stop  offset="0.4756" style="stop-color:#0080BA"/>
		<stop  offset="1" style="stop-color:#764896"/>
	</linearGradient>
	
		<rect x="678.39" y="33.83" style="clip-path:url(#SVGID_00000001658534444124773780000018418567313846608550_);fill:url(#SVGID_00000137122152633192473790000001808509414529120953_);" width="26.16" height="20.86"/>
</g>
<g>
	<defs>
		<path id="SVGID_00000069371430287940401950000015613963569152511926_" d="M749.75,37.84v25.8l-60.63,42.46
			c-1.25,0.88-1.99,2.31-1.99,3.84v28.66c0,2.59,2.1,4.69,4.68,4.69c2.58,0,4.7-2.1,4.7-4.69v-26.22l60.63-42.46
			c1.25-0.88,1.99-2.31,1.99-3.84V37.84c3.22-1.69,5.4-5.05,5.4-8.92c0-5.57-4.51-10.08-10.07-10.08c-5.57,0-10.1,4.52-10.1,10.08
			C744.35,32.79,746.56,36.15,749.75,37.84"/>
	</defs>
	<clipPath id="SVGID_00000172405268048338460940000016467575933182292395_">
		<use xlink:href="#SVGID_00000069371430287940401950000015613963569152511926_"  style="overflow:visible;"/>
	</clipPath>
	
		<linearGradient id="SVGID_00000155142178663117138150000001258828099461843083_" gradientUnits="userSpaceOnUse" x1="-539.2662" y1="679.8079" x2="-537.1498" y2="679.8079" gradientTransform="matrix(0 86.506 86.506 0 -58081.6367 46699.0625)">
		<stop  offset="0" style="stop-color:#00ACB0"/>
		<stop  offset="0.239" style="stop-color:#0094B6"/>
		<stop  offset="0.4756" style="stop-color:#0080BA"/>
		<stop  offset="1" style="stop-color:#764896"/>
	</linearGradient>
	
		<rect x="687.13" y="18.83" style="clip-path:url(#SVGID_00000172405268048338460940000016467575933182292395_);fill:url(#SVGID_00000155142178663117138150000001258828099461843083_);" width="77.4" height="124.46"/>
</g>
<g>
	<defs>
		<path id="SVGID_00000173880471382739801270000005170970574915797161_" d="M676.95,97.28c5.57,0,10.07-4.51,10.07-10.08
			c0-0.42-0.02-0.83-0.08-1.24l43.07-30.15c1.25-0.88,2.01-2.31,2.01-3.84V23.56c0-2.59-2.12-4.69-4.7-4.69
			c-2.58,0-4.68,2.1-4.68,4.69v25.97L681.6,78.26c-1.4-0.73-2.98-1.14-4.66-1.14c-5.57,0-10.1,4.51-10.1,10.08
			C666.85,92.77,671.38,97.28,676.95,97.28"/>
	</defs>
	<clipPath id="SVGID_00000178906785276033250990000014267159433035726270_">
		<use xlink:href="#SVGID_00000173880471382739801270000005170970574915797161_"  style="overflow:visible;"/>
	</clipPath>
	
		<linearGradient id="SVGID_00000070112390847637089420000014941680831252635036_" gradientUnits="userSpaceOnUse" x1="-539.2662" y1="679.6469" x2="-537.1498" y2="679.6469" gradientTransform="matrix(0 86.506 86.506 0 -58094.0938 46699.0625)">
		<stop  offset="0" style="stop-color:#00ACB0"/>
		<stop  offset="0.239" style="stop-color:#0094B6"/>
		<stop  offset="0.4756" style="stop-color:#0080BA"/>
		<stop  offset="1" style="stop-color:#764896"/>
	</linearGradient>
	
		<rect x="666.85" y="18.88" style="clip-path:url(#SVGID_00000178906785276033250990000014267159433035726270_);fill:url(#SVGID_00000070112390847637089420000014941680831252635036_);" width="65.16" height="78.41"/>
</g>
</svg>
